<?xml version="1.0" encoding="utf-8"?>
<!-- Generator: Adobe Illustrator 26.0.1, SVG Export Plug-In . SVG Version: 6.00 Build 0)  -->
<svg version="1.1" id="Layer_1" xmlns="http://www.w3.org/2000/svg" xmlns:xlink="http://www.w3.org/1999/xlink" x="0px" y="0px"
	 viewBox="0 0 552.6 92" style="enable-background:new 0 0 552.6 92;" xml:space="preserve">
<style type="text/css">
	.st0{fill:#0A7287;}
	.st1{fill:#AE4A96;}
	.st2{fill:#6DB752;}
	.st3{fill:#F3EA74;}
	.st4{fill:#FFFFFF;}
</style>
<g>
	<polygon class="st0" points="81.4,11 81.4,0.8 71.2,0.8 61.1,0.8 61.1,11 71.2,11 71.2,21.2 81.4,21.2 91.6,21.2 91.6,11 	"/>
	<polygon class="st1" points="61.1,11 61.1,0.8 50.9,0.8 50.9,11 40.7,11 40.7,21.2 50.9,21.2 61.1,21.2 71.2,21.2 71.2,11 	"/>
	<rect x="30.5" y="11" class="st0" width="10.2" height="10.2"/>
	<polygon class="st2" points="40.7,41.5 40.7,51.7 40.7,61.9 40.7,61.9 40.7,72.1 50.9,72.1 50.9,61.9 50.9,61.9 50.9,51.7 
		50.9,41.5 	"/>
	<polygon class="st0" points="30.5,41.5 30.5,51.7 30.5,61.9 20.4,61.9 20.4,72.1 30.5,72.1 40.7,72.1 40.7,61.9 40.7,51.7 
		40.7,41.5 	"/>
	<polygon class="st1" points="61.1,51.7 61.1,41.5 50.9,41.5 50.9,51.7 50.9,61.9 50.9,72.1 61.1,72.1 61.1,61.9 71.2,61.9 
		71.2,51.7 	"/>
	<g>
		<polygon class="st0" points="81.4,41.5 71.2,41.5 71.2,41.5 61.1,41.5 61.1,51.7 71.2,51.7 71.2,51.7 81.4,51.7 91.6,51.7 
			91.6,41.5 		"/>
		<rect x="71.2" y="51.7" class="st0" width="10.2" height="10.2"/>
	</g>
	<polygon class="st2" points="81.4,72.1 71.2,72.1 71.2,82.2 81.4,82.2 91.6,82.2 91.6,72.1 	"/>
	<rect x="61.1" y="31.4" class="st2" width="10.2" height="10.2"/>
	<polygon class="st2" points="20.4,72.1 10.2,72.1 10.2,82.2 20.4,82.2 20.4,92.4 30.5,92.4 30.5,82.2 30.5,72.1 	"/>
	<rect x="81.4" y="31.4" class="st2" width="10.2" height="10.2"/>
	<polygon class="st3" points="81.4,82.2 71.2,82.2 71.2,72.1 61.1,72.1 61.1,82.2 61.1,82.2 61.1,92.4 71.2,92.4 81.4,92.4 
		91.6,92.4 91.6,82.2 	"/>
	<polygon class="st3" points="71.2,61.9 61.1,61.9 61.1,72.1 71.2,72.1 81.4,72.1 81.4,61.9 	"/>
	<polygon class="st3" points="81.4,21.2 71.2,21.2 61.1,21.2 61.1,31.4 71.2,31.4 71.2,41.5 81.4,41.5 81.4,31.4 91.6,31.4 
		91.6,21.2 	"/>
	<polygon class="st2" points="40.7,0.8 30.5,0.8 30.5,11 40.7,11 50.9,11 50.9,0.8 	"/>
	<polygon class="st0" points="10.2,82.2 10.2,72.1 10.2,61.9 0,61.9 0,72.1 0,82.2 0,92.4 10.2,92.4 20.4,92.4 20.4,82.2 	"/>
	<polygon class="st1" points="10.2,51.7 10.2,41.5 0,41.5 0,51.7 0,61.9 10.2,61.9 10.2,72.1 20.4,72.1 20.4,61.9 20.4,51.7 	"/>
	<polygon class="st3" points="20.4,41.5 10.2,41.5 10.2,51.7 20.4,51.7 20.4,61.9 30.5,61.9 30.5,51.7 30.5,41.5 	"/>
	<polygon class="st2" points="20.4,31.4 10.2,31.4 10.2,21.2 0,21.2 0,31.4 0,41.5 10.2,41.5 20.4,41.5 30.5,41.5 30.5,31.4 	"/>
	<g>
		<polygon class="st3" points="20.4,21.2 20.4,11 10.2,11 0,11 0,21.2 10.2,21.2 		"/>
		<polygon class="st3" points="20.4,21.2 10.2,21.2 10.2,31.4 20.4,31.4 30.5,31.4 30.5,21.2 		"/>
	</g>
	<polygon class="st1" points="20.4,0.8 10.2,0.8 0,0.8 0,11 10.2,11 20.4,11 20.4,21.2 30.5,21.2 30.5,11 30.5,0.8 	"/>
	<rect x="71.2" y="50.9" class="st0" width="10.2" height="2.6"/>
	<rect x="61.1" y="71" class="st3" width="10.2" height="1.8"/>
	<rect x="10.2" y="20.8" class="st3" width="10.2" height="0.8"/>
</g>
<g>
	<rect x="471.2" y="61.9" class="st0" width="10.2" height="30.5"/>
	<rect x="480.1" y="82.2" class="st0" width="11.4" height="10.2"/>
	<rect x="491.5" y="61.9" class="st3" width="10.2" height="30.5"/>
	<rect x="501.7" y="82.2" class="st2" width="30.5" height="10.2"/>
	<rect x="500.2" y="72.1" class="st3" width="11.7" height="10.2"/>
	<rect x="511.9" y="72.1" class="st2" width="10.2" height="13.3"/>
	<rect x="532.2" y="80.1" class="st0" width="10.2" height="12.3"/>
	<rect x="522" y="72.1" class="st0" width="30.5" height="10.2"/>
	<rect x="481.3" y="59.5" class="st1" width="10.2" height="22.7"/>
	<rect x="471.2" y="51.7" class="st1" width="12.1" height="10.2"/>
	<rect x="481.3" y="51.7" class="st1" width="10.2" height="10.2"/>
	<rect x="471.2" y="11" class="st3" width="10.2" height="40.7"/>
	<rect x="481.3" y="8.3" class="st0" width="10.2" height="43.5"/>
	<rect x="471.2" y="0.8" class="st0" width="40.7" height="10.2"/>
	<rect x="491.5" y="46.6" class="st0" width="10.2" height="15.3"/>
	<rect x="488.1" y="41.5" class="st0" width="13.6" height="10.2"/>
	<rect x="491.5" y="11" class="st3" width="10.2" height="30.5"/>
	<rect x="532.2" y="31.4" class="st2" width="20.4" height="10.2"/>
	<rect x="532.2" y="21.2" class="st0" width="20.4" height="10.2"/>
	<rect x="532.2" y="51.7" class="st1" width="12.5" height="10.2"/>
	<rect x="532.2" y="39.1" class="st2" width="10.2" height="12.6"/>
	<rect x="532.2" y="61.9" class="st3" width="10.2" height="10.2"/>
	<rect x="542.4" y="41.5" class="st1" width="10.2" height="30.5"/>
	<rect x="539.2" y="11" class="st1" width="13.3" height="10.2"/>
	<rect x="501.7" y="11" class="st2" width="30.5" height="10.2"/>
	<rect x="511.9" y="0.8" class="st2" width="10.2" height="11.6"/>
	<rect x="532.2" y="8.8" class="st1" width="10.2" height="12.4"/>
	<rect x="522" y="0.8" class="st1" width="20.4" height="10.2"/>
</g>
<g>
	<rect x="298.1" y="6.7" class="st0" width="10.2" height="10.2"/>
	<rect x="288" y="0.8" class="st0" width="20.4" height="10.2"/>
	<rect x="288" y="11" class="st1" width="10.2" height="20.4"/>
	<rect x="298.2" y="11" class="st0" width="20.4" height="10.2"/>
	<rect x="292.3" y="21.2" class="st1" width="26.2" height="10.2"/>
	<rect x="288" y="31.4" class="st2" width="30.5" height="10.2"/>
	<rect x="288" y="39.1" class="st2" width="10.2" height="12.6"/>
	<rect x="298.2" y="41.5" class="st1" width="10.2" height="10.2"/>
	<rect x="298.2" y="51.7" class="st3" width="10.2" height="10.2"/>
	<rect x="288" y="51.7" class="st1" width="10.2" height="13.1"/>
	<rect x="298.2" y="57.5" class="st3" width="10.2" height="14.6"/>
	<rect x="288" y="61.9" class="st1" width="10.2" height="10.2"/>
	<rect x="298.2" y="72.1" class="st3" width="10.2" height="7.5"/>
	<rect x="288" y="72.1" class="st3" width="20.4" height="10.2"/>
	<rect x="288" y="82.2" class="st1" width="20.4" height="10.2"/>
	<rect x="328.7" y="31.4" class="st2" width="14" height="10.2"/>
	<rect x="318.5" y="27.6" class="st3" width="10.2" height="23.9"/>
	<rect x="338.9" y="26.3" class="st2" width="10.2" height="15.3"/>
	<rect x="328.7" y="16.6" class="st3" width="10.2" height="14.8"/>
	<rect x="318.5" y="21.2" class="st3" width="13.6" height="10.2"/>
	<rect x="338.9" y="21.2" class="st2" width="10.2" height="10.2"/>
	<rect x="328.7" y="11" class="st3" width="10.2" height="10.2"/>
	<rect x="338.9" y="11" class="st1" width="14.7" height="10.2"/>
	<rect x="349.1" y="27.6" class="st1" width="10.2" height="14"/>
	<rect x="349.1" y="17.2" class="st1" width="10.2" height="14.1"/>
	<rect x="349.1" y="11" class="st1" width="10.2" height="10.2"/>
	<rect x="359.2" y="11" class="st3" width="10.2" height="40.7"/>
	<rect x="338.9" y="61.9" class="st4" width="10.2" height="10.2"/>
	<rect x="338.9" y="51.7" class="st0" width="14.7" height="10.2"/>
	<rect x="338.9" y="41.5" class="st0" width="20.4" height="12.5"/>
	<rect x="349.1" y="61.9" class="st4" width="10.2" height="10.2"/>
	<rect x="349.1" y="51.7" class="st0" width="10.2" height="10.2"/>
	<rect x="359.2" y="51.7" class="st0" width="10.2" height="10.2"/>
	<rect x="338.9" y="82.2" class="st0" width="30.5" height="10.2"/>
	<rect x="338.9" y="72.1" class="st4" width="10.2" height="10.2"/>
	<rect x="349.1" y="72.1" class="st4" width="10.2" height="10.2"/>
	<rect x="359.2" y="72.1" class="st4" width="10.2" height="10.2"/>
	<rect x="338.9" y="0.8" class="st0" width="30.5" height="10.2"/>
	<rect x="338.9" y="72.1" class="st3" width="10.2" height="10.2"/>
	<rect x="338.9" y="61.9" class="st3" width="10.2" height="10.2"/>
	<rect x="349.1" y="72.1" class="st3" width="10.2" height="10.2"/>
	<rect x="359.2" y="72.1" class="st3" width="10.2" height="10.2"/>
	<rect x="349.1" y="61.9" class="st1" width="10.2" height="10.2"/>
	<rect x="359.2" y="55.6" class="st0" width="10.2" height="16.5"/>
	<rect x="349.1" y="41.5" class="st0" width="10.2" height="10.2"/>
</g>
<g>
	<rect x="196.6" y="79.8" class="st2" width="10.2" height="12.6"/>
	<rect x="196.6" y="72.1" class="st2" width="14.2" height="10.2"/>
	<rect x="206.8" y="82.2" class="st1" width="11.7" height="10.2"/>
	<rect x="217" y="81.2" class="st1" width="10.2" height="11.2"/>
	<rect x="206.8" y="72.1" class="st2" width="10.2" height="10.2"/>
	<rect x="217" y="72.1" class="st1" width="10.2" height="10.2"/>
	<rect x="257.5" y="82.2" class="st1" width="12.6" height="10.2"/>
	<rect x="267.7" y="80.7" class="st1" width="10.2" height="11.7"/>
	<rect x="267.7" y="72.1" class="st1" width="10.2" height="10.2"/>
	<rect x="206.8" y="61.9" class="st0" width="10.2" height="10.2"/>
	<rect x="217" y="61.9" class="st2" width="10.2" height="10.2"/>
	<rect x="206.8" y="51.7" class="st0" width="10.2" height="12.5"/>
	<rect x="215.1" y="51.7" class="st0" width="12.1" height="10.2"/>
	<rect x="206.8" y="31.4" class="st3" width="10.2" height="10.2"/>
	<rect x="216.9" y="31.4" class="st3" width="20.5" height="10.2"/>
	<rect x="206.8" y="21.2" class="st3" width="10.2" height="10.9"/>
	<rect x="196.6" y="11" class="st1" width="40.4" height="10.2"/>
	<rect x="196.6" y="0.8" class="st0" width="30.5" height="10.2"/>
	<rect x="217" y="21.2" class="st2" width="10.2" height="10.2"/>
	<rect x="227.2" y="21.2" class="st2" width="10.2" height="10.2"/>
	<rect x="225.2" y="21.2" class="st2" width="22.3" height="10.2"/>
	<rect x="227" y="60.2" class="st2" width="10.2" height="11.9"/>
	<rect x="227" y="51.7" class="st2" width="10.2" height="10.2"/>
	<rect x="246.3" y="61.9" class="st1" width="11.2" height="10.2"/>
	<rect x="257.5" y="60.2" class="st0" width="10.2" height="12.6"/>
	<rect x="247.3" y="72.1" class="st0" width="10.2" height="10.2"/>
	<rect x="256" y="72.1" class="st0" width="11.7" height="10.2"/>
	<rect x="245.7" y="51.7" class="st3" width="11.7" height="10.2"/>
	<rect x="227" y="39.9" class="st3" width="10.2" height="11.8"/>
	<rect x="237" y="41.5" class="st3" width="10.2" height="30.5"/>
	<rect x="237.1" y="31.4" class="st0" width="10.2" height="10.2"/>
	<rect x="247.2" y="39.1" class="st0" width="10.3" height="12.6"/>
	<rect x="246.3" y="31.4" class="st0" width="11.2" height="10.2"/>
	<rect x="247.3" y="18.9" class="st2" width="10.2" height="12.5"/>
	<rect x="247.3" y="11" class="st2" width="10.2" height="10.2"/>
	<rect x="256.8" y="31.4" class="st0" width="10.6" height="10.2"/>
	<rect x="266.4" y="11" class="st3" width="11.2" height="10.2"/>
	<rect x="257.5" y="0.8" class="st3" width="10" height="30.5"/>
	<rect x="266.8" y="0.8" class="st3" width="10.9" height="11.2"/>
	<rect x="257.5" y="51.7" class="st0" width="10.2" height="10.2"/>
	<rect x="225.4" y="72.1" class="st1" width="11.7" height="10.2"/>
</g>
<g>
	<rect x="105" y="78.8" class="st3" width="10.2" height="13.7"/>
	<rect x="105" y="50.1" class="st3" width="10.2" height="32.2"/>
	<rect x="105" y="61.9" class="st3" width="10.2" height="10.2"/>
	<rect x="105" y="51.7" class="st3" width="10.2" height="10.2"/>
	<rect x="105" y="41.5" class="st3" width="10.2" height="10.2"/>
	<rect x="105" y="21.2" class="st0" width="10.2" height="10.2"/>
	<rect x="105" y="11" class="st0" width="10.2" height="10.2"/>
	<rect x="105" y="0.8" class="st0" width="10.2" height="23"/>
	<rect x="114.2" y="41.5" class="st3" width="11.1" height="10.2"/>
	<rect x="115.1" y="51.7" class="st1" width="15.5" height="10.2"/>
	<rect x="115.1" y="72.1" class="st2" width="10.2" height="10.2"/>
	<rect x="122.6" y="72.1" class="st2" width="12.9" height="10.2"/>
	<rect x="115.1" y="78.8" class="st2" width="10.2" height="13.7"/>
	<rect x="115.1" y="59.4" class="st1" width="15.8" height="12.6"/>
	<rect x="125.3" y="59" class="st1" width="10.2" height="13"/>
	<rect x="125.3" y="51.7" class="st1" width="10.2" height="10.2"/>
	<rect x="135.5" y="47.9" class="st0" width="14" height="14"/>
	<rect x="135.5" y="41.5" class="st0" width="12.6" height="10.2"/>
	<rect x="131.8" y="61.9" class="st1" width="13.9" height="10.2"/>
	<rect x="145.7" y="51.7" class="st0" width="10.2" height="10.2"/>
	<rect x="145.7" y="41.5" class="st0" width="10.2" height="13.3"/>
	<rect x="145.7" y="57.7" class="st0" width="10.2" height="14.4"/>
	<rect x="152.5" y="51.7" class="st0" width="13.5" height="10.2"/>
	<rect x="155.8" y="61.9" class="st1" width="10.2" height="10.2"/>
	<rect x="155.8" y="72.1" class="st2" width="13.2" height="10.2"/>
	<rect x="166" y="50.1" class="st3" width="11.6" height="11.8"/>
	<rect x="166" y="41.5" class="st3" width="10.2" height="10.2"/>
	<rect x="166" y="61.9" class="st2" width="10.2" height="12.4"/>
	<rect x="176.2" y="50.1" class="st3" width="10.2" height="11.8"/>
	<rect x="174.3" y="41.5" class="st3" width="12.1" height="10.2"/>
	<rect x="173.3" y="61.9" class="st2" width="13" height="10.2"/>
	<rect x="166" y="72.1" class="st2" width="10.2" height="10.2"/>
	<rect x="166" y="82.2" class="st1" width="12.4" height="10.2"/>
	<rect x="176.2" y="72.1" class="st1" width="10.2" height="11.7"/>
	<rect x="176.2" y="82.2" class="st1" width="10.2" height="10.2"/>
	<rect x="111.8" y="31.4" class="st1" width="13.5" height="10.2"/>
	<rect x="113.5" y="0.8" class="st0" width="11.8" height="10.2"/>
	<rect x="115.1" y="21.2" class="st1" width="10.2" height="12.7"/>
	<rect x="115.1" y="11" class="st1" width="10.2" height="14.9"/>
	<rect x="105" y="31.4" class="st1" width="10.2" height="10.2"/>
	<rect x="170.2" y="8.9" class="st0" width="9.3" height="12.3"/>
	<rect x="176.2" y="29.5" class="st3" width="10.2" height="14.3"/>
	<rect x="174.8" y="0.8" class="st0" width="11.6" height="12.4"/>
	<rect x="176.2" y="21.2" class="st3" width="10.2" height="10.2"/>
	<rect x="176.2" y="11" class="st0" width="10.2" height="10.2"/>
	<rect x="166" y="0.8" class="st0" width="10.2" height="40.7"/>
</g>
<g>
	<rect x="389.8" y="61.9" class="st2" width="10.2" height="30.5"/>
	<rect x="379.6" y="61.9" class="st1" width="10.2" height="30.5"/>
	<rect x="389.8" y="31.4" class="st3" width="10.2" height="30.5"/>
	<rect x="379.6" y="51.7" class="st3" width="12.1" height="10.2"/>
	<rect x="444.8" y="41.2" class="st3" width="12.1" height="10.2"/>
	<rect x="399.9" y="61.9" class="st0" width="40.7" height="10.2"/>
	<rect x="399.9" y="51.7" class="st2" width="30.5" height="10.2"/>
	<rect x="399.9" y="41.5" class="st0" width="10.2" height="10.2"/>
	<rect x="410.1" y="41.5" class="st2" width="10.2" height="13.2"/>
	<rect x="430.5" y="48.5" class="st1" width="10.2" height="13.4"/>
	<rect x="420.3" y="41.5" class="st1" width="20.4" height="10.2"/>
	<rect x="389.8" y="0.8" class="st1" width="10.2" height="30.5"/>
	<rect x="398.9" y="11" class="st1" width="11.2" height="10.2"/>
	<rect x="410.1" y="8.1" class="st3" width="10.2" height="13.1"/>
	<rect x="420.3" y="11" class="st1" width="10.2" height="10.2"/>
	<rect x="399.9" y="0.8" class="st3" width="30.5" height="10.2"/>
	<rect x="430.5" y="8.1" class="st2" width="10.2" height="13.1"/>
	<rect x="440.6" y="11" class="st0" width="15.3" height="10.2"/>
	<rect x="430.5" y="0.8" class="st2" width="20.4" height="10.2"/>
	<rect x="440.6" y="21.2" class="st3" width="10.2" height="30.5"/>
	<rect x="450.8" y="41.5" class="st3" width="10.2" height="30.5"/>
	<rect x="439" y="51.7" class="st1" width="11.8" height="10.2"/>
	<rect x="440.6" y="61.9" class="st3" width="16.2" height="10.2"/>
	<rect x="440.6" y="72.1" class="st0" width="20.4" height="20.4"/>
	<rect x="379.6" y="11" class="st0" width="10.2" height="40.7"/>
	<rect x="450.8" y="11" class="st0" width="10.2" height="30.5"/>
</g>
</svg>
